<svg xmlns="http://www.w3.org/2000/svg" id="Layer_1" data-name="Layer 1" viewBox="0 0 468 335.85"><defs><style>.cls-1{fill:#84dbff}.cls-2{fill:#ffd15c}.cls-3{fill:#40596b}.cls-4{fill:#f2f2f2}.cls-5{fill:#ff7058}.cls-6{fill:#ffc107}</style></defs><path d="M92.14,166.43a25,25,0,0,0-24.92-24.92c-14.48,0-23.14,10.86-23.14,21.36H58.32c0-3,2.76-7.12,8.9-7.12A10.69,10.69,0,0,1,77.9,166.43c0,5.89-4.3,10.68-15.13,10.68H24v14.24H62.77C81.06,191.35,92.14,180.17,92.14,166.43Zm0,0a25,25,0,0,0-24.92-24.92c-14.48,0-23.14,10.86-23.14,21.36H58.32c0-3,2.76-7.12,8.9-7.12A10.69,10.69,0,0,1,77.9,166.43c0,5.89-4.3,10.68-15.13,10.68H24v14.24H62.77C81.06,191.35,92.14,180.17,92.14,166.43Z" class="cls-1" transform="translate(-24 -73.19)"/><path d="M123.72,258.32a24.93,24.93,0,0,1-24.91,24.91c-14.48,0-23.14-10.85-23.14-21.35H89.91c0,2.95,2.76,7.12,8.9,7.12a10.7,10.7,0,0,0,10.68-10.68c0-5.89-5.42-10.68-15.14-10.68h-43V233.4h43C112.64,233.4,123.72,244.58,123.72,258.32Zm0,0a24.93,24.93,0,0,1-24.91,24.91c-14.48,0-23.14-10.85-23.14-21.35H89.91c0,2.95,2.76,7.12,8.9,7.12a10.7,10.7,0,0,0,10.68-10.68c0-5.89-5.42-10.68-15.14-10.68h-43V233.4h43C112.64,233.4,123.72,244.58,123.72,258.32Z" class="cls-1" transform="translate(-24 -73.19)"/><path d="M127.46,163.48c-15.71,0-26.79,11.94-26.79,27.65h12.61c0-7.81,5.67-13.48,14.18-13.48s12.75,5.67,12.75,13.48-5.52,14.23-20.55,14.23H24V219.6h97.79c22.25,0,32.59-14.3,32.59-28.47C154.38,175.42,143.75,163.48,127.46,163.48Z" class="cls-1" transform="translate(-24 -73.19)"/><path d="M42.66,233.4H24v14.36H42.66Z" class="cls-1" transform="translate(-24 -73.19)"/><path d="M312.18,295.69c-44.08-27.29-77.67-27.29-122.45,0L313.58,99.78C312.88,164.85,312.18,230.62,312.18,295.69Z" class="cls-1" transform="translate(-24 -73.19)"/><path d="M317.08,297.09c.7.7,1.4.7,2.1,1.4H473.81C461.91,190,390.55,110.27,315.68,85.09A195.55,195.55,0,0,1,317.08,297.09Z" class="cls-2" transform="translate(-24 -73.19)"/><path d="M312.88,330.68h0a8.51,8.51,0,0,1-8.4-8.4V81.59a8.51,8.51,0,0,1,8.4-8.4h0a8.51,8.51,0,0,1,8.4,8.4v240C321.28,326.48,317.08,330.68,312.88,330.68Z" class="cls-3" transform="translate(-24 -73.19)"/><polygon points="437.91 335.85 162.24 335.85 132.85 261.68 467.3 261.68 437.91 335.85" class="cls-4"/><rect width="335.15" height="18.19" x="132.85" y="243.49" class="cls-5"/><path d="M420.78,216.06a2.19,2.19,0,0,0-1.84-1H403.5V190.8a2.21,2.21,0,0,0-1.75-2.16,2.19,2.19,0,0,0-2.47,1.26l-17.64,39.69a2.21,2.21,0,0,0,2,3.1h15.43v24.25a2.21,2.21,0,0,0,1.75,2.16,2.4,2.4,0,0,0,.46,0,2.21,2.21,0,0,0,2-1.31L421,218.15A2.19,2.19,0,0,0,420.78,216.06Z" class="cls-6" transform="translate(-24 -73.19)"/></svg>