<svg xmlns="http://www.w3.org/2000/svg" xmlns:xlink="http://www.w3.org/1999/xlink" id="Layer_1" x="0" y="0" version="1.1" viewBox="0 0 512 512" xml:space="preserve" style="enable-background:new 0 0 512 512"><style type="text/css">.st0{fill:#84dbff}.st1{fill:#ffd15c}.st2{fill:#40596b}.st3{fill:#f2f2f2}.st4{fill:#ff7058}.st5{fill:#ffc107}.st6{fill:#898989}.st7{font-family:&apos;Montserrat-ExtraLight&apos;}.st8{font-size:48px}.st9{font-family:&apos;Montserrat-SemiBoldItalic&apos;}.st10{font-size:21px}</style><g><path d="M90.5,126.4c0-13.7-11.2-24.9-24.9-24.9c-14.5,0-23.1,10.9-23.1,21.4h14.2c0-3,2.8-7.1,8.9-7.1 c5.9,0,10.7,4.8,10.7,10.7s-4.3,10.7-15.1,10.7H22.3v14.2h38.8C79.4,151.3,90.5,140.2,90.5,126.4z M90.5,126.4 c0-13.7-11.2-24.9-24.9-24.9c-14.5,0-23.1,10.9-23.1,21.4h14.2c0-3,2.8-7.1,8.9-7.1c5.9,0,10.7,4.8,10.7,10.7s-4.3,10.7-15.1,10.7 H22.3v14.2h38.8C79.4,151.3,90.5,140.2,90.5,126.4z" class="st0"/><path d="M122.1,218.3c0,13.7-11.2,24.9-24.9,24.9c-14.5,0-23.1-10.9-23.1-21.4h14.2c0,3,2.8,7.1,8.9,7.1 c5.9,0,10.7-4.8,10.7-10.7c0-5.9-5.4-10.7-15.1-10.7h-43v-14.2h43C111,193.4,122.1,204.6,122.1,218.3z M122.1,218.3 c0,13.7-11.2,24.9-24.9,24.9c-14.5,0-23.1-10.9-23.1-21.4h14.2c0,3,2.8,7.1,8.9,7.1c5.9,0,10.7-4.8,10.7-10.7 c0-5.9-5.4-10.7-15.1-10.7h-43v-14.2h43C111,193.4,122.1,204.6,122.1,218.3z" class="st0"/><path d="M125.8,123.5c-15.7,0-26.8,11.9-26.8,27.6h12.6c0-7.8,5.7-13.5,14.2-13.5s12.8,5.7,12.8,13.5 c0,7.8-5.5,14.2-20.5,14.2H22.3v14.2h97.8c22.3,0,32.6-14.3,32.6-28.5C152.7,135.4,142.1,123.5,125.8,123.5z" class="st0"/><path d="M41,193.4H22.3v14.4H41V193.4z" class="st0"/><path d="M310.5,255.7c-44.1-27.3-77.7-27.3-122.4,0L311.9,59.8C311.2,124.9,310.5,190.6,310.5,255.7z" class="st0"/><path d="M315.4,257.1c0.7,0.7,1.4,0.7,2.1,1.4h154.6C460.2,150,388.9,70.3,314,45.1C356,109.5,356.7,192,315.4,257.1z" class="st1"/><path d="M311.2,290.7L311.2,290.7c-4.9,0-8.4-4.2-8.4-8.4V41.6c0-4.9,4.2-8.4,8.4-8.4l0,0c4.9,0,8.4,4.2,8.4,8.4v240 C319.6,286.5,315.4,290.7,311.2,290.7z" class="st2"/><polygon points="460.2 369 184.6 369 155.2 294.9 489.6 294.9" class="st3"/><rect width="335.2" height="18.2" x="155.2" y="276.7" class="st4"/><path d="M419.1,176.1c-0.4-0.6-1.1-1-1.8-1h-15.4v-24.3c0-1-0.7-1.9-1.7-2.2c-1-0.2-2.1,0.3-2.5,1.3L380,189.6 c-0.3,0.7-0.2,1.5,0.2,2.1c0.4,0.6,1.1,1,1.8,1h15.4v24.3c0,1,0.7,1.9,1.7,2.2c0.2,0,0.3,0,0.5,0c0.9,0,1.7-0.5,2-1.3l17.6-39.7 C419.6,177.5,419.5,176.7,419.1,176.1z" class="st5"/></g><text class="st6 st7 st8" transform="matrix(1 0 0 1 147.7766 437.3496)">Vitesome</text><text class="st0 st9 st10" transform="matrix(1 0 0 1 114.044 478.21)">Vue3 + Vite template pack</text></svg>