<svg xmlns="http://www.w3.org/2000/svg" width="1866.667" height="1866.667" preserveAspectRatio="xMidYMid meet" version="1.0" viewBox="0 0 1400 1400"><metadata>Created by potrace 1.14, written by Peter Selinger 2001-2017</metadata><g fill="#000" stroke="none"><path d="M6450 13986 c-73 -16 -126 -45 -178 -97 -45 -45 -87 -122 -97 -174 -3 -16 -6 -344 -6 -727 l-1 -697 -32 -53 c-36 -59 -330 -525 -381 -603 -18 -27 -68 -106 -110 -175 -43 -69 -107 -169 -142 -222 -35 -54 -63 -100 -63 -103 0 -3 -15 -27 -33 -53 -18 -26 -69 -104 -112 -175 -44 -70 -108 -171 -142 -225 -34 -53 -87 -137 -118 -187 -31 -49 -87 -139 -126 -198 -38 -60 -69 -111 -69 -113 0 -3 -5 -10 -10 -17 -14 -17 -45 -64 -239 -375 -25 -40 -64 -101 -86 -136 -22 -34 -44 -70 -50 -79 -10 -16 -263 -417 -330 -522 -18 -27 -65 -102 -105 -165 -40 -63 -98 -155 -130 -205 -31 -49 -95 -151 -142 -225 -47 -74 -171 -270 -275 -435 -104 -165 -299 -473 -433 -685 -133 -212 -258 -410 -278 -440 -19 -30 -45 -71 -57 -90 -12 -19 -47 -73 -77 -120 -30 -47 -106 -167 -169 -267 -63 -101 -130 -208 -149 -238 -19 -31 -134 -212 -254 -403 -121 -191 -261 -412 -312 -492 -275 -435 -354 -561 -354 -565 0 -2 48 25 106 61 59 35 108 64 109 64 1 0 47 25 101 56 211 120 569 290 779 371 162 62 415 147 473 158 9 2 17 4 17 5 0 1 7 3 15 5 8 1 42 10 75 18 102 26 272 60 365 72 25 3 56 8 70 10 14 3 50 7 80 9 30 3 77 8 105 11 70 9 415 9 510 1 162 -14 191 -17 245 -26 30 -5 72 -12 92 -14 20 -2 45 -7 55 -10 10 -2 34 -7 53 -10 111 -16 572 -147 655 -185 11 -5 74 -31 140 -57 66 -25 165 -67 220 -92 113 -51 451 -222 489 -247 l25 -17 0 -529 -1 -529 -3074 0 c-2921 0 -3074 -1 -3075 -17 0 -10 -1 -182 -1 -383 l0 -365 47 -120 c26 -66 53 -133 60 -150 7 -16 32 -79 55 -140 24 -60 50 -128 60 -150 9 -22 27 -67 40 -100 12 -33 29 -75 37 -92 7 -18 20 -51 28 -73 8 -22 21 -55 29 -73 8 -17 90 -223 182 -457 92 -234 254 -643 359 -910 106 -267 214 -539 240 -605 26 -66 53 -133 60 -150 7 -16 15 -38 19 -48 5 -16 286 -17 5752 -15 l5746 3 109 275 c60 151 188 475 285 720 97 245 180 454 184 465 18 41 303 760 377 950 19 50 40 104 47 120 7 17 55 136 106 265 51 129 97 247 104 263 6 15 18 27 26 27 13 0 15 46 13 363 -1 199 -2 370 -2 380 -1 16 -177 17 -3556 17 l-3555 0 0 374 c0 290 3 375 13 378 6 2 1435 4 3175 4 2103 -1 3162 2 3163 9 2 15 -5 87 -17 173 -10 75 -13 101 -24 182 -6 47 -17 123 -25 170 -8 47 -17 105 -20 130 -3 25 -8 52 -10 60 -2 8 -7 29 -9 45 -3 17 -17 91 -31 165 -15 74 -29 149 -31 165 -3 17 -10 48 -16 70 -5 22 -12 51 -15 65 -2 14 -20 93 -39 175 -20 83 -37 157 -39 165 -4 17 -46 177 -69 260 -78 289 -267 863 -355 1079 -11 25 -31 76 -45 113 -39 101 -133 323 -172 406 -19 41 -34 75 -34 77 0 14 -246 515 -325 660 -94 175 -273 483 -377 650 -41 65 -278 426 -290 439 -4 6 -41 56 -81 112 -95 134 -218 299 -270 364 -7 8 -37 47 -67 85 -374 476 -937 1059 -1374 1424 -10 9 -23 21 -30 26 -32 28 -187 155 -226 185 -25 19 -50 39 -56 45 -13 12 -35 29 -194 147 -172 128 -241 177 -415 292 -129 86 -500 316 -510 316 -2 0 -34 17 -72 39 -137 77 -181 100 -338 179 -181 90 -339 163 -500 229 -60 25 -123 51 -140 58 -16 8 -54 22 -82 32 l-53 18 0 137 c0 114 -4 149 -22 204 -54 165 -230 267 -398 230z m461 -943 c122 -215 301 -577 399 -808 106 -250 303 -797 324 -899 3 -12 14 -55 26 -96 26 -89 59 -215 66 -250 3 -14 12 -52 21 -85 8 -33 17 -69 19 -80 2 -11 12 -60 23 -110 22 -101 29 -137 36 -180 2 -16 7 -41 10 -55 11 -50 15 -76 20 -110 3 -19 7 -44 9 -55 2 -11 7 -45 11 -75 4 -30 9 -62 10 -71 2 -9 6 -40 10 -70 3 -30 8 -65 10 -79 2 -14 7 -56 11 -95 3 -38 8 -77 9 -86 2 -9 6 -59 10 -110 3 -52 8 -110 10 -129 28 -231 22 -930 -10 -1250 -2 -25 -7 -74 -10 -110 -8 -91 -15 -155 -25 -225 -5 -33 -12 -85 -15 -115 -4 -30 -15 -104 -25 -165 -10 -60 -21 -126 -25 -145 -14 -85 -79 -389 -101 -478 -14 -53 -27 -106 -29 -117 -23 -124 -232 -770 -291 -902 -8 -17 -14 -33 -14 -37 0 -7 -130 -313 -171 -403 -91 -199 -342 -683 -355 -683 -2 0 -4 1829 -4 4065 0 2236 2 4065 4 4065 2 0 19 -26 37 -57z" transform="translate(0.000000,1400.000000) scale(0.100000,-0.100000)"/></g></svg>