<?xml version="1.0" standalone="no"?>
<!DOCTYPE svg PUBLIC "-//W3C//DTD SVG 20010904//EN"
 "http://www.w3.org/TR/2001/REC-SVG-20010904/DTD/svg10.dtd">
<svg version="1.0" xmlns="http://www.w3.org/2000/svg"
 width="700.000000pt" height="700.000000pt" viewBox="0 0 700.000000 700.000000"
 preserveAspectRatio="xMidYMid meet">
<metadata>
Created by potrace 1.14, written by Peter Selinger 2001-2017
</metadata>
<g transform="translate(0.000000,700.000000) scale(0.100000,-0.100000)"
fill="#000000" stroke="none">
<path d="M2438 6995 c-1 -1 -95 -6 -208 -10 -113 -4 -221 -8 -240 -10 -198
-15 -263 -23 -405 -51 -88 -17 -270 -66 -325 -88 -194 -77 -308 -135 -435
-224 -270 -188 -492 -464 -620 -767 -48 -114 -103 -289 -121 -385 -2 -14 -9
-47 -15 -75 -5 -27 -12 -70 -15 -95 -2 -25 -6 -54 -9 -65 -4 -19 -11 -93 -20
-210 -28 -363 -29 -2711 0 -3020 2 -27 7 -80 9 -118 26 -327 125 -667 268
-916 81 -142 158 -241 288 -371 212 -212 411 -335 702 -435 134 -46 299 -86
414 -100 27 -3 59 -8 70 -10 12 -3 57 -7 100 -10 44 -4 97 -8 119 -10 267 -28
2689 -28 3020 0 28 2 82 7 120 10 58 5 190 23 280 39 116 21 334 89 455 142
374 165 694 468 873 829 72 146 153 376 172 495 3 19 10 51 15 70 5 19 12 59
15 89 4 30 8 63 11 74 2 11 6 59 9 106 4 47 8 100 10 117 28 212 28 2684 0
3024 -10 122 -15 176 -20 205 -3 17 -7 44 -9 60 -12 107 -56 293 -95 410 -101
295 -229 503 -441 715 -192 192 -330 282 -625 411 -114 49 -380 113 -560 134
-27 3 -63 8 -80 10 -16 2 -84 7 -150 11 -66 3 -147 9 -180 11 -69 5 -2371 13
-2377 8z m2337 -638 c44 -3 127 -8 185 -11 212 -12 364 -38 529 -92 204 -68
338 -149 481 -294 136 -136 221 -278 285 -474 99 -305 110 -495 110 -1986 0
-1191 -5 -1392 -41 -1690 -11 -90 -47 -237 -80 -329 -69 -191 -146 -313 -279
-446 -136 -137 -274 -222 -464 -285 -93 -31 -106 -35 -166 -46 -16 -2 -46 -9
-65 -14 -46 -11 -151 -25 -275 -35 -182 -15 -590 -20 -1505 -20 -1495 0 -1685
11 -1995 117 -190 64 -324 147 -460 283 -97 97 -161 184 -215 294 -37 74 -96
233 -105 283 -2 11 -6 27 -9 36 -9 28 -16 72 -32 187 -33 242 -39 503 -39
1655 0 934 6 1365 20 1495 2 22 7 67 10 100 24 280 102 521 233 720 59 88 208
237 298 297 170 113 397 195 619 222 22 3 58 8 80 11 59 7 158 13 365 20 102
4 187 9 188 10 6 6 2243 -3 2327 -8z"/>
<path d="M5240 5766 c-172 -56 -281 -201 -289 -383 -10 -249 195 -448 444
-430 128 9 232 64 305 161 123 162 112 390 -24 539 -41 44 -134 103 -191 119
-70 20 -173 17 -245 -6z"/>
<path d="M3388 5295 c-2 -1 -32 -5 -68 -9 -96 -9 -138 -15 -210 -32 -36 -9
-69 -17 -75 -18 -5 -1 -16 -5 -22 -9 -7 -5 -13 -6 -13 -3 0 3 -30 -6 -67 -19
-456 -157 -814 -465 -1032 -887 -209 -404 -254 -890 -122 -1334 157 -527 563
-966 1077 -1162 82 -31 239 -76 304 -86 19 -3 46 -8 60 -11 93 -19 343 -26
475 -12 484 51 942 312 1239 707 295 393 411 857 341 1368 -9 67 -48 219 -77
302 -158 448 -489 821 -911 1025 -245 118 -480 174 -754 180 -78 1 -143 2
-145 0z m302 -644 c500 -82 898 -491 966 -992 79 -589 -295 -1143 -871 -1289
-389 -99 -818 17 -1100 297 -264 264 -385 608 -342 978 54 462 390 849 852
979 50 15 122 30 160 34 88 10 250 7 335 -7z"/>
</g>
</svg>
